<?xml version="1.0" encoding="UTF-8" standalone="no"?>
<svg
   xmlns:dc="http://purl.org/dc/elements/1.1/"
   xmlns:cc="http://creativecommons.org/ns#"
   xmlns:rdf="http://www.w3.org/1999/02/22-rdf-syntax-ns#"
   xmlns:svg="http://www.w3.org/2000/svg"
   xmlns="http://www.w3.org/2000/svg"
   xmlns:xlink="http://www.w3.org/1999/xlink"
   xmlns:sodipodi="http://sodipodi.sourceforge.net/DTD/sodipodi-0.dtd"
   xmlns:inkscape="http://www.inkscape.org/namespaces/inkscape"
   id="svg2"
   height="1280pt"
   width="1280pt"
   version="1.1"
   viewBox="0 0 1280 1280"
   inkscape:version="0.91 r13725"
   sodipodi:docname="BackgroundPattern173Colour3.svg">
  <sodipodi:namedview
     pagecolor="#ffffff"
     bordercolor="#666666"
     borderopacity="1"
     objecttolerance="10"
     gridtolerance="10"
     guidetolerance="10"
     inkscape:pageopacity="0"
     inkscape:pageshadow="2"
     inkscape:window-width="1366"
     inkscape:window-height="705"
     id="namedview4702"
     showgrid="true"
     fit-margin-top="0"
     fit-margin-left="0"
     fit-margin-right="0"
     fit-margin-bottom="0"
     inkscape:object-paths="true"
     inkscape:object-nodes="true"
     inkscape:snap-smooth-nodes="true"
     inkscape:zoom="0.33624997"
     inkscape:cx="800.00008"
     inkscape:cy="799.99993"
     inkscape:window-x="-8"
     inkscape:window-y="-8"
     inkscape:window-maximized="1"
     inkscape:current-layer="svg2" />
  <metadata
     id="metadata4706">
    <rdf:RDF>
      <cc:Work
         rdf:about="">
        <dc:format>image/svg+xml</dc:format>
        <dc:type
           rdf:resource="http://purl.org/dc/dcmitype/StillImage" />
        <dc:title></dc:title>
      </cc:Work>
    </rdf:RDF>
  </metadata>
  <defs
     id="defs4704">
    <clipPath
       clipPathUnits="userSpaceOnUse"
       id="clipPath6435">
      <rect
         style="opacity:0.67099998;fill:#ff7fff;fill-opacity:1;stroke:none;stroke-width:2;stroke-miterlimit:4;stroke-dasharray:none;stroke-opacity:1"
         id="rect6437"
         width="905.10083"
         height="905.10083"
         x="-452.55042"
         y="452.54626"
         transform="matrix(0.70710678,-0.70710678,0.70710678,0.70710678,0,0)" />
    </clipPath>
  </defs>
  <g
     id="g6166"
     transform="matrix(0.99999551,-0.99999551,0.99999551,0.99999551,-639.99419,640.00006)"
     clip-path="url(#clipPath6435)">
    <g
       transform="translate(-80,0)"
       inkscape:tile-y0="0"
       inkscape:tile-x0="0"
       inkscape:tile-h="160"
       inkscape:tile-w="160"
       inkscape:tile-cy="80"
       inkscape:tile-cx="80"
       id="g5802">
      <rect
         style="opacity:1;fill:#90ff64;fill-opacity:1;stroke:none;stroke-width:2;stroke-miterlimit:4;stroke-dasharray:none;stroke-opacity:1"
         id="rect5248"
         width="155.24783"
         height="155.24783"
         x="2.37608"
         y="2.376076" />
      <path
         id="path10"
         d="m 95.738113,81.909597 c 1.445764,-0.375013 0.809233,2.21799 1.359413,2.945806 1.243457,6.913026 4.549474,13.046423 7.169614,19.473417 -6.350511,-2.77311 -12.51845,-5.982907 -19.424074,-7.218955 -0.83884,-0.4737 -3.572471,0.07646 -2.859457,-1.57653 3.80932,-0.720412 7.759267,-0.962196 11.467433,-2.079822 1.275529,-3.656361 0.996738,-8.040529 2.287071,-11.543916 z m -9.747811,-9.513432 c 0.56745,0.06171 2.64728,-0.759894 1.749228,1.006606 -0.597056,3.703236 -2.247597,7.159749 -3.809319,10.527442 -3.693362,1.662874 -7.500214,3.735303 -11.650004,3.764906 0.0296,-4.13498 2.185918,-7.922096 3.789582,-11.625332 3.175255,-1.497577 6.424525,-3.061764 9.920513,-3.673622 M 81.315005,78.3618 c -1.872587,0.05676 -2.97048,1.428494 -2.931005,3.256664 1.907126,0.03949 3.557667,-1.149703 2.931005,-3.256664 z M 55.666248,55.735326 c 6.434394,2.612738 12.555456,5.958232 19.490686,7.154809 0.836373,0.471236 3.572471,-0.07646 2.859457,1.57653 -3.80932,0.720412 -7.759267,0.962196 -11.467433,2.079822 -1.132433,3.7057 -1.21385,7.692655 -2.087229,11.479771 -1.606132,0.708081 -1.043616,-2.102032 -1.559255,-2.881661 C 61.607206,68.266113 58.464025,62.0735 55.666248,55.735326 Z M 160.8,-0.8 c -1e-5,53.858419 0,161.6 0,161.6 0,0 -113.453203,0 -161.6,0 0.003195,-55.68397 4.6e-7,-113.429095 0,-161.6 m 67.319352,5.563484 c -2.874259,0.2960613 -4.648158,3.2739352 -3.172787,5.92369 0.791964,4.931881 9.676262,5.151455 9.362931,-0.444097 1.312537,-4.152251 -2.69909,-6.3381738 -6.190144,-5.479593 m 61.595498,0.508232 c -4.03629,0.5526518 -8.10713,0.9449358 -12.08669,1.8627228 -2.58806,0.074033 -3.66375,4.0979742 -1.74182,5.5930872 3.00995,0.594587 6.05198,-0.397213 9.05206,-0.651339 5.41052,-1.213848 11.07022,0.03949 15.97744,2.4351 7.40399,4.342232 10.23877,14.062907 8.5907,22.1281 -0.24178,3.093842 -1.45317,6.350516 -0.41696,9.399939 1.58394,1.171913 4.22874,0.673538 5.20082,-1.105294 1.36927,-6.760061 3.06916,-13.76931 0.94986,-20.563903 C 151.39512,12.725062 139.58229,5.0176 128.11485,5.271716 M 44.756397,6.7100873 C 39.624671,7.5908679 39.738162,14.054868 38.822839,18.059094 38.64767,19.509787 39.639475,24.360262 37.036605,23.316639 35.346589,16.921723 31.125252,9.9075453 23.7632,9.4313808 19.008952,7.6303387 13.808146,9.8976776 9.1945282,7.8499127 6.5497161,7.4379034 8.530858,10.726645 8.7825099,11.868945 8.192855,17.1265 8.8984671,22.458068 10.349167,27.523178 c 2.025551,5.119387 7.251028,7.875222 12.301337,9.170486 1.620934,0.08141 0.964665,2.052694 -0.259054,2.042826 -4.749313,-0.09868 -9.641721,0.631594 -13.9198042,2.773107 -2.6768855,2.254997 -1.8158413,6.202481 -1.0781557,9.170487 1.7393587,4.24601 4.3693679,8.514229 8.5635659,10.714948 7.584099,4.509994 16.877949,7.54462 25.626553,4.882542 2.2624,-0.629139 3.819188,-2.607809 4.357033,-4.8258 1.522246,-4.093045 -3.552734,-8.067668 -7.357118,-6.678645 -6.246888,1.406294 -15.205204,3.678561 -19.567169,-2.486913 -0.666138,-1.554319 1.495108,-1.157106 2.198252,-1.125029 4.882541,1.154632 10.426285,2.104497 14.94615,-0.638996 2.074895,-0.75743 2.432636,-3.315891 1.857783,-5.188471 -0.989337,-4.260817 -4.62102,-7.083262 -7.221422,-10.374478 -2.242663,-2.077358 -5.398181,-4.840597 -4.147323,-8.284778 4.75178,-1.559248 7.32011,4.001762 10.712476,6.158071 3.116043,2.943342 8.077534,7.366991 12.456771,4.3743 3.750106,-4.672825 2.454839,-11.006061 1.277996,-16.379574 -0.700677,-2.906335 2.511585,-1.576529 3.239401,-0.02464 4.038767,6.202481 0.791964,13.76931 0.202309,20.410949 0.75989,5.395713 8.001051,6.515803 10.84077,2.193316 C 69.129625,36.19533 66.886962,27.520743 63.785723,20.46955 60.822644,12.779369 53.423585,6.0267011 44.756397,6.7101176 M 88.714064,7.2430239 C 82.336415,7.7561948 77.404531,12.500569 74.194736,17.693979 c -1.152171,2.129171 0.103621,5.657232 3.086437,4.82579 4.181863,-1.285397 5.277288,-6.619429 9.545502,-7.991181 8.46488,-3.380025 17.393585,1.371752 24.087035,6.431933 2.07983,2.176045 4.81346,5.595551 8.25271,4.019022 1.56418,-2.447432 0.25904,-5.570877 -1.76404,-7.312703 C 109.62831,10.739008 99.266174,6.2561529 88.714064,7.2430239 M 100.24811,18.826411 c -2.274736,0.271387 -3.607011,2.447442 -4.611152,4.280552 -2.215522,4.756716 -3.774778,10.344864 -1.9392,15.476593 1.125033,2.195781 5.647366,1.818303 5.625161,-0.999213 0.222046,-4.838122 1.361881,-9.641712 4.009161,-13.739697 1.84051,-2.190851 -0.3528,-5.726316 -3.08397,-5.018235 m 32.07328,5.694239 c -4.96149,0.915322 -10.20424,1.591335 -14.49466,4.472997 -2.05268,1.327332 -2.40302,5.279754 0.58473,5.733709 3.79945,0.680942 6.839,-2.47951 10.32759,-3.414568 -1.06582,3.429375 -4.13991,6.493604 -3.46638,10.265913 0.4737,3.177723 4.811,2.600407 5.92862,0.268923 2.78792,-4.690097 3.93268,-10.243713 4.30029,-15.622155 0.53785,-2.124232 -1.92193,-1.823242 -3.18019,-1.704819 m -52.272046,1.026351 c -2.706492,0.441623 -5.859543,-0.175174 -8.035592,1.83311 -1.487707,1.236058 -1.500042,4.625952 0.838841,4.808519 4.741911,0.888184 9.63432,-0.281255 14.430509,0.04191 2.63001,-0.07898 2.676886,-3.725435 1.277997,-5.181068 -2.612738,-1.236058 -5.637496,-1.687548 -8.511755,-1.502506 M 28.221386,28.39655 c 8.28971,9.557842 16.794064,19.345126 21.597656,31.204839 6.557752,12.029948 8.960781,25.648758 11.672207,38.907361 8.06273,1.86766 16.322833,2.97541 24.165984,5.71644 7.391659,1.71223 13.887732,5.81021 20.803217,8.77081 9.26179,4.96643 17.25297,11.9288 25.19233,18.72586 -7.88509,-9.71573 -16.61395,-19.18968 -21.31393,-30.99019 C 103.69475,88.605513 101.22757,74.875674 98.508751,61.491245 90.446021,59.623593 82.185918,58.515836 74.342767,55.774807 67.126277,54.124265 60.788104,50.127442 54.037912,47.243306 44.472671,42.395306 36.548104,34.988845 28.221386,28.396555 m 77.067164,3.685965 c -3.76244,0.954793 -2.10943,5.519064 0.80677,6.296228 7.43853,3.10371 12.63934,9.533168 16.21674,16.552284 1.03128,3.500923 6.6071,1.931797 5.63256,-1.574064 C 124.32527,43.401913 115.84806,34.17221 105.28855,32.08252 m -28.130736,3.759967 c -1.887389,0.244258 -3.468849,1.815849 -2.533789,3.806852 2.343817,4.944222 6.900689,8.768345 12.180445,10.228916 6.241955,0.9918 12.36055,-0.878316 18.03752,-3.234464 2.77311,-1.63821 1.05596,-6.930297 -2.37836,-5.696714 -5.287154,1.433433 -11.304594,4.618549 -16.658366,1.401355 -3.419506,-1.374216 -4.482858,-7.23869 -8.64745,-6.505945 m 59.424386,4.41872 c -3.21719,0.231906 -1.94166,4.660493 -0.24918,6.123529 6.71812,6.681109 12.51352,16.737316 9.30372,26.448122 -1.33227,4.386632 -6.53309,5.602955 -8.14168,9.686133 -0.70068,2.528848 1.72703,4.213932 3.99189,3.611941 7.86782,-3.676097 13.25367,-12.639342 11.00607,-21.385477 -0.25659,-6.604632 -3.36769,-12.619607 -6.87109,-18.052326 -2.17851,-2.913729 -4.79865,-7.1326 -9.03973,-6.431922 m -34.7551,10.821029 c -4.727106,2.309274 0.005,9.375264 4.16459,9.024925 2.98282,0.616797 4.14979,-3.964745 1.75664,-5.373503 -1.86273,-1.416161 -3.06424,-4.512468 -5.92123,-3.651422 m 13.44365,2.731161 c -3.29862,1.1201 -2.89401,5.607893 -4.37924,8.220632 -3.40718,9.059468 0.92519,20.033461 10.0414,23.519587 3.07903,0.730281 4.5174,-4.216406 2.2994,-5.871877 -3.68102,-2.810113 -7.84808,-6.621903 -6.79953,-11.812839 -0.32813,-4.379239 3.33069,-7.981313 2.50912,-12.377823 -0.37747,-1.566651 -2.33888,-1.776367 -3.67115,-1.67768 m 22.89044,2.222929 c -3.06916,0.725352 -5.54867,3.027222 -8.70172,3.587267 -2.80518,1.05842 -6.00264,0.461368 -8.72146,1.662885 -1.11764,1.643138 -1.02142,4.788783 1.35448,5.32169 5.99276,1.433432 12.56039,-0.461358 17.47006,-4.011629 2.60781,-1.655471 2.10204,-6.646568 -1.40136,-6.560213 M 7.701887,62.944413 c -3.6637557,0.994274 -3.7377709,6.461535 -1.8158412,9.015058 2.7040244,1.384094 7.5150172,1.477842 8.4278722,-2.227858 1.179309,-3.957352 -2.810113,-7.418794 -6.612031,-6.7872 m 122.186873,7.672919 c -2.30187,-0.05919 -2.35616,2.9088 -2.15879,4.559342 0.28373,4.361968 -1.19411,9.118674 0.5872,13.275865 4.03136,2.410435 6.65891,-3.394833 6.04704,-6.668768 0.0962,-3.63909 1.02141,-11.622868 -4.47545,-11.166439 M 28.998546,71.110768 c -1.524714,0.271387 -2.403028,1.818303 -2.869325,3.170319 -0.769758,4.714771 -1.24839,9.844026 0.912855,14.280016 1.512379,1.492639 5.289625,1.270591 5.218076,-1.460571 -0.271389,-4.87021 0.843774,-9.819361 -0.172702,-14.637758 -0.192439,-1.416151 -1.958937,-1.662874 -3.088904,-1.352006 m -10.485496,2.7583 C 10.726644,77.515552 5.3235298,86.348042 7.4724397,95.034971 c 0.3454046,7.431129 3.9721533,14.230669 8.2601043,20.122279 1.929331,2.86439 5.859542,6.32337 9.367865,3.871 1.211384,-3.21966 -1.643139,-5.82007 -3.762442,-7.74693 -5.331567,-6.65397 -10.085815,-15.622159 -6.895756,-24.284414 1.376684,-4.28548 6.493606,-5.474654 8.062729,-9.515896 0.698211,-2.528849 -1.727022,-4.216397 -3.99189,-3.611942 m 19.14775,0.66861 c -2.032952,0.767287 -2.758302,4.394035 -0.893118,5.780583 3.681026,2.810113 7.848086,6.621904 6.799536,11.812839 0.34047,4.440919 -3.463914,8.11701 -2.457306,12.5752 1.018943,2.10697 4.83073,2.09463 5.713978,-0.20725 2.398095,-6.232079 4.722174,-13.241327 2.331481,-19.826224 C 47.092812,79.990132 42.989899,74.897884 37.6608,74.537678 m 111.0081,12.841645 c -3.46885,0.611858 -4.09058,5.6449 -1.7591,7.853022 2.03049,2.161239 6.93276,3.051897 7.95911,-0.589658 1.96141,-4.13499 -1.19658,-9.340722 -6.20001,-7.263364 m -115.599514,5.47219 c -4.96149,0.772226 -10.951792,1.805981 -13.932141,6.274029 -1.648072,2.573268 1.517313,6.118598 4.162126,4.418718 4.423646,-2.71636 9.481355,-4.083176 14.647622,-4.337302 2.29694,-0.10608 2.151376,-3.039555 1.687547,-4.618548 -1.635737,-1.870116 -4.334827,-1.574055 -6.565154,-1.736897 m 89.686764,-0.0101 c -3.3899,0.325674 -7.57176,1.332281 -8.52409,5.139132 -2.06009,4.206525 3.11851,8.731325 7.18441,7.246095 6.24689,-1.40876 15.20521,-3.67856 19.56718,2.48691 0.66613,1.55432 -1.49758,1.15464 -2.19826,1.12503 -4.88254,-1.15463 -10.42628,-2.1045 -14.94615,0.639 -2.07489,0.75743 -2.4351,3.31589 -1.85778,5.18847 0.98687,4.26081 4.61856,7.08326 7.22143,10.37448 2.24265,2.07735 5.39817,4.84059 4.14731,8.28477 -4.75178,1.55925 -7.32011,-4.00422 -10.71247,-6.15807 -3.11851,-2.94334 -8.07753,-7.36699 -12.45677,-4.3743 -3.75011,4.67283 -2.45731,11.00606 -1.278,16.37958 0.70068,2.90633 -2.51158,1.57405 -3.2394,0.0246 -4.04124,-6.20248 -0.79197,-13.76931 -0.20231,-20.41095 -0.78456,-6.15313 -9.663925,-6.33817 -11.511839,-0.89065 -3.345491,9.86624 0.735218,20.63053 6.431929,28.80921 4.36443,4.38417 11.73142,9.06934 17.76613,5.23042 2.74843,-4.30523 3.0815,-9.77249 3.22953,-14.7241 0.9696,-2.09711 2.52146,0.46628 2.6004,1.72948 1.23852,6.39245 6.90316,11.61546 13.49792,11.85971 4.36443,1.53459 9.12608,-0.69574 13.33015,1.34955 2.55847,0.44656 0.77469,-2.71882 0.47123,-3.81919 0.0987,-7.2609 0.60693,-16.50293 -5.95822,-21.39041 -2.49432,-2.37096 -6.12847,-2.50418 -8.99286,-4.18433 0.002,-0.76483 0.47616,-1.44823 1.28293,-1.49264 4.85293,-0.005 10.14503,-0.4885 14.32936,-3.11604 3.59961,-5.58322 -0.4663,-12.54066 -4.34716,-16.9199 -6.86862,-5.568411 -15.94043,-9.024924 -24.8346,-8.385928 m -69.779124,7.088201 c -5.94836,2.686747 4.033832,12.962537 7.061056,7.283097 0.848709,-3.91787 -3.185124,-7.91963 -7.061056,-7.283097 M 34.39426,103.15664 c -2.079829,-0.005 -2.940874,2.82492 -2.143976,4.473 3.204861,6.68851 7.534754,13.36468 14.302217,16.91248 2.89153,1.6012 7.058589,5.4722 10.105551,2.07243 1.433429,-3.50092 -2.800245,-5.00096 -5.200807,-6.22468 -5.940958,-3.14072 -10.182033,-8.52656 -13.204322,-14.41817 -0.875848,-1.37422 -1.830646,-3.48859 -3.858663,-2.81506 m 31.609453,6.94757 c -3.683493,0.34294 -7.053655,1.94414 -10.529906,3.06424 -2.555993,1.01647 -2.158778,5.91629 0.796898,5.93108 4.47299,0.0963 8.156483,-3.43183 12.745429,-2.71635 4.670364,-0.51071 7.83575,3.33562 10.426284,6.58735 1.670278,2.81011 7.527353,0.77717 5.933557,-2.62013 -3.33562,-7.13508 -11.413154,-12.00035 -19.372262,-10.24619 m -56.7104978,3.39731 c -3.6489526,2.12177 -2.671951,7.60383 -3.6514197,11.30459 -2.1143695,12.55299 6.1605375,26.62823 19.1107415,28.9375 6.33324,2.02062 12.89346,0.19984 19.219299,-0.87831 2.588066,-0.074 3.661288,-4.09798 1.741825,-5.59309 -3.012422,-0.59459 -6.051981,0.39721 -9.052067,0.65134 -5.410517,1.21385 -11.070217,-0.0395 -15.977429,-2.4351 -5.36364,-2.94828 -8.057796,-8.98299 -8.91884,-14.79072 -0.784562,-5.15147 1.384086,-10.19931 1.092959,-15.33843 0.30593,-2.0897 -2.200721,-2.17852 -3.5650688,-1.85778 m 22.3649468,2.7731 c -2.881661,0.27386 -3.79945,3.57987 -4.771518,5.82994 -1.312537,4.19913 -2.802711,8.70913 -2.143975,13.13524 5.765789,0.54277 11.852311,-1.25579 16.991438,-3.92035 2.464708,-1.1793 3.044494,-5.6893 -0.325668,-6.11118 -3.730369,-0.41943 -6.715651,2.4425 -10.095682,3.53052 0.937527,-3.28874 3.525594,-6.02731 3.594675,-9.57264 -0.214644,-1.53952 -1.386552,-3.55273 -3.24927,-2.89153 m 31.130821,3.91294 c -3.60701,0.6538 -1.702351,5.74852 -2.923603,8.25517 -0.04934,4.06097 -4.606217,7.17455 -3.503389,11.16397 1.99101,3.27394 6.31597,1.03128 7.463206,-1.77143 2.555994,-4.73205 4.144855,-10.34487 2.773105,-15.69865 -0.330601,-1.8183 -2.240195,-2.36848 -3.809319,-1.94906 m 17.467603,7.43854 c -2.511585,0.13569 -5.028104,0.0518 -7.539688,0.14309 -2.632477,0.079 -2.676886,3.72297 -1.280465,5.18353 4.497662,2.19826 9.703403,1.69742 14.474919,0.85365 2.32408,-0.54278 4.048636,-3.32329 2.543659,-5.47466 -2.504184,-1.34709 -5.501802,-0.73769 -8.198425,-0.70561 m -38.648305,7.10053 c -2.68182,1.1719 -1.329807,5.524 0.500837,7.11533 8.864562,8.22309 21.947994,13.58674 33.95327,9.72314 4.0437,-1.80844 7.142473,-5.32417 9.565239,-8.95338 1.430962,-2.0897 0.229448,-6.00264 -2.9088,-5.13172 -4.184329,1.2854 -5.277288,6.61943 -9.545502,7.99118 -8.46488,3.38003 -17.393588,-1.37175 -24.087035,-6.43193 -2.023084,-1.98854 -4.194198,-5.03057 -7.478009,-4.31262 m 49.067188,10.89504 c -3.84386,0.51564 -4.221338,5.72139 -2.634944,8.49449 2.459774,1.7517 6.394919,1.72702 8.553698,-0.57238 1.894791,-3.67857 -1.638205,-8.99286 -5.918754,-7.92211 z"
         inkscape:connector-curvature="0"
         sodipodi:nodetypes="ccccccccccccccccccccccccccccccccccccccccccccccccccccccccccccccccccccccccccccccccccccccccccccccccccccccccccccccccccccccccccccccccccccccccccccccccccccccccccccccccccccccccccccccccccccccccccccccccccccccccccccccccccccccccccccccccccccccccccccccccccccccccccccccccccccccccccccccccc"
         style="fill:#ffffba;fill-opacity:1" />
    </g>
    <g
       id="g6096">
      <use
         x="0"
         y="0"
         inkscape:tiled-clone-of="#g5802"
         xlink:href="#g5802"
         transform="translate(0,480)"
         id="use5956"
         width="100%"
         height="100%" />
      <use
         x="0"
         y="0"
         inkscape:tiled-clone-of="#g5802"
         xlink:href="#g5802"
         transform="translate(80,640)"
         id="use5958"
         width="100%"
         height="100%" />
      <use
         x="0"
         y="0"
         inkscape:tiled-clone-of="#g5802"
         xlink:href="#g5802"
         transform="translate(240,320)"
         id="use5970"
         width="100%"
         height="100%" />
      <use
         x="0"
         y="0"
         inkscape:tiled-clone-of="#g5802"
         xlink:href="#g5802"
         transform="translate(160,480)"
         id="use5972"
         width="100%"
         height="100%" />
      <use
         x="0"
         y="0"
         inkscape:tiled-clone-of="#g5802"
         xlink:href="#g5802"
         transform="translate(240,640)"
         id="use5974"
         width="100%"
         height="100%" />
      <use
         x="0"
         y="0"
         inkscape:tiled-clone-of="#g5802"
         xlink:href="#g5802"
         transform="translate(160,800)"
         id="use5976"
         width="100%"
         height="100%" />
      <use
         x="0"
         y="0"
         inkscape:tiled-clone-of="#g5802"
         xlink:href="#g5802"
         transform="translate(320,160)"
         id="use5984"
         width="100%"
         height="100%" />
      <use
         x="0"
         y="0"
         inkscape:tiled-clone-of="#g5802"
         xlink:href="#g5802"
         transform="translate(400,320)"
         id="use5986"
         width="100%"
         height="100%" />
      <use
         x="0"
         y="0"
         inkscape:tiled-clone-of="#g5802"
         xlink:href="#g5802"
         transform="translate(320,480)"
         id="use5988"
         width="100%"
         height="100%" />
      <use
         x="0"
         y="0"
         inkscape:tiled-clone-of="#g5802"
         xlink:href="#g5802"
         transform="translate(400,640)"
         id="use5990"
         width="100%"
         height="100%" />
      <use
         x="0"
         y="0"
         inkscape:tiled-clone-of="#g5802"
         xlink:href="#g5802"
         transform="translate(320,800)"
         id="use5992"
         width="100%"
         height="100%" />
      <use
         x="0"
         y="0"
         inkscape:tiled-clone-of="#g5802"
         xlink:href="#g5802"
         transform="translate(400,960)"
         id="use5994"
         width="100%"
         height="100%" />
      <use
         x="0"
         y="0"
         inkscape:tiled-clone-of="#g5802"
         xlink:href="#g5802"
         transform="translate(560,0)"
         id="use5998"
         width="100%"
         height="100%" />
      <use
         x="0"
         y="0"
         inkscape:tiled-clone-of="#g5802"
         xlink:href="#g5802"
         transform="translate(480,160)"
         id="use6000"
         width="100%"
         height="100%" />
      <use
         x="0"
         y="0"
         inkscape:tiled-clone-of="#g5802"
         xlink:href="#g5802"
         transform="translate(560,320)"
         id="use6002"
         width="100%"
         height="100%" />
      <use
         x="0"
         y="0"
         inkscape:tiled-clone-of="#g5802"
         xlink:href="#g5802"
         transform="translate(480,480)"
         id="use6004"
         width="100%"
         height="100%" />
      <use
         x="0"
         y="0"
         inkscape:tiled-clone-of="#g5802"
         xlink:href="#g5802"
         transform="translate(560,640)"
         id="use6006"
         width="100%"
         height="100%" />
      <use
         x="0"
         y="0"
         inkscape:tiled-clone-of="#g5802"
         xlink:href="#g5802"
         transform="translate(480,800)"
         id="use6008"
         width="100%"
         height="100%" />
      <use
         x="0"
         y="0"
         inkscape:tiled-clone-of="#g5802"
         xlink:href="#g5802"
         transform="translate(560,960)"
         id="use6010"
         width="100%"
         height="100%" />
      <use
         x="0"
         y="0"
         inkscape:tiled-clone-of="#g5802"
         xlink:href="#g5802"
         transform="translate(480,1120)"
         id="use6012"
         width="100%"
         height="100%" />
      <use
         x="0"
         y="0"
         inkscape:tiled-clone-of="#g5802"
         xlink:href="#g5802"
         transform="translate(720,0)"
         id="use6014"
         width="100%"
         height="100%" />
      <use
         x="0"
         y="0"
         inkscape:tiled-clone-of="#g5802"
         xlink:href="#g5802"
         transform="translate(640,160)"
         id="use6016"
         width="100%"
         height="100%" />
      <use
         x="0"
         y="0"
         inkscape:tiled-clone-of="#g5802"
         xlink:href="#g5802"
         transform="translate(720,320)"
         id="use6018"
         width="100%"
         height="100%" />
      <use
         x="0"
         y="0"
         inkscape:tiled-clone-of="#g5802"
         xlink:href="#g5802"
         transform="translate(640,480)"
         id="use6020"
         width="100%"
         height="100%" />
      <use
         x="0"
         y="0"
         inkscape:tiled-clone-of="#g5802"
         xlink:href="#g5802"
         transform="translate(720,640)"
         id="use6022"
         width="100%"
         height="100%" />
      <use
         x="0"
         y="0"
         inkscape:tiled-clone-of="#g5802"
         xlink:href="#g5802"
         transform="translate(640,800)"
         id="use6024"
         width="100%"
         height="100%" />
      <use
         x="0"
         y="0"
         inkscape:tiled-clone-of="#g5802"
         xlink:href="#g5802"
         transform="translate(720,960)"
         id="use6026"
         width="100%"
         height="100%" />
      <use
         x="0"
         y="0"
         inkscape:tiled-clone-of="#g5802"
         xlink:href="#g5802"
         transform="translate(640,1120)"
         id="use6028"
         width="100%"
         height="100%" />
      <use
         x="0"
         y="0"
         inkscape:tiled-clone-of="#g5802"
         xlink:href="#g5802"
         transform="translate(800,160)"
         id="use6032"
         width="100%"
         height="100%" />
      <use
         x="0"
         y="0"
         inkscape:tiled-clone-of="#g5802"
         xlink:href="#g5802"
         transform="translate(880,320)"
         id="use6034"
         width="100%"
         height="100%" />
      <use
         x="0"
         y="0"
         inkscape:tiled-clone-of="#g5802"
         xlink:href="#g5802"
         transform="translate(800,480)"
         id="use6036"
         width="100%"
         height="100%" />
      <use
         x="0"
         y="0"
         inkscape:tiled-clone-of="#g5802"
         xlink:href="#g5802"
         transform="translate(880,640)"
         id="use6038"
         width="100%"
         height="100%" />
      <use
         x="0"
         y="0"
         inkscape:tiled-clone-of="#g5802"
         xlink:href="#g5802"
         transform="translate(800,800)"
         id="use6040"
         width="100%"
         height="100%" />
      <use
         x="0"
         y="0"
         inkscape:tiled-clone-of="#g5802"
         xlink:href="#g5802"
         transform="translate(880,960)"
         id="use6042"
         width="100%"
         height="100%" />
      <use
         x="0"
         y="0"
         inkscape:tiled-clone-of="#g5802"
         xlink:href="#g5802"
         transform="translate(800,1120)"
         id="use6044"
         width="100%"
         height="100%" />
      <use
         x="0"
         y="0"
         inkscape:tiled-clone-of="#g5802"
         xlink:href="#g5802"
         transform="translate(960,160)"
         id="use6048"
         width="100%"
         height="100%" />
      <use
         x="0"
         y="0"
         inkscape:tiled-clone-of="#g5802"
         xlink:href="#g5802"
         transform="translate(1040,320)"
         id="use6050"
         width="100%"
         height="100%" />
      <use
         x="0"
         y="0"
         inkscape:tiled-clone-of="#g5802"
         xlink:href="#g5802"
         transform="translate(960,480)"
         id="use6052"
         width="100%"
         height="100%" />
      <use
         x="0"
         y="0"
         inkscape:tiled-clone-of="#g5802"
         xlink:href="#g5802"
         transform="translate(1040,640)"
         id="use6054"
         width="100%"
         height="100%" />
      <use
         x="0"
         y="0"
         inkscape:tiled-clone-of="#g5802"
         xlink:href="#g5802"
         transform="translate(960,800)"
         id="use6056"
         width="100%"
         height="100%" />
      <use
         x="0"
         y="0"
         inkscape:tiled-clone-of="#g5802"
         xlink:href="#g5802"
         transform="translate(1120,480)"
         id="use6068"
         width="100%"
         height="100%" />
      <use
         x="0"
         y="0"
         inkscape:tiled-clone-of="#g5802"
         xlink:href="#g5802"
         transform="translate(1200,640)"
         id="use6070"
         width="100%"
         height="100%" />
      <use
         x="0"
         y="0"
         inkscape:tiled-clone-of="#g5802"
         xlink:href="#g5802"
         transform="translate(1120,800)"
         id="use6072"
         width="100%"
         height="100%" />
      <use
         x="0"
         y="0"
         inkscape:tiled-clone-of="#g5802"
         xlink:href="#g5802"
         transform="translate(1280,480)"
         id="use6084"
         width="100%"
         height="100%" />
    </g>
  </g>
</svg>
